<?xml version="1.0" encoding="UTF-8" standalone="no"?>
<!DOCTYPE svg PUBLIC "-//W3C//DTD SVG 1.1//EN" "http://www.w3.org/Graphics/SVG/1.1/DTD/svg11.dtd">
<svg width="100%" height="100%" viewBox="0 0 219 219" version="1.1" xmlns="http://www.w3.org/2000/svg" xmlns:xlink="http://www.w3.org/1999/xlink" xml:space="preserve" xmlns:serif="http://www.serif.com/" style="fill-rule:evenodd;clip-rule:evenodd;stroke-linejoin:round;stroke-miterlimit:2;">
    <g>
        <path d="M109.133,218.403C71.623,218.403 41.106,187.885 41.106,150.375L41.106,149.388L39.618,149.388C28.05,149.388 18.639,139.977 18.639,128.409L18.639,118.804C18.639,107.236 28.05,97.825 39.618,97.825L41.106,97.825L41.106,66.905C41.106,55.049 46.595,43.778 55.869,36.432C55.557,34.875 55.395,33.275 55.395,31.649C55.395,27.33 57.695,22.892 61.548,19.781C61.587,19.751 61.626,19.72 61.666,19.692L64,18.026C64.083,17.966 64.169,17.913 64.258,17.864C64.622,17.666 65.033,17.419 65.505,17.135C67.703,15.817 71.025,13.823 76.516,12.147C84.125,9.656 92.113,8.204 100.937,7.709C112.37,7.065 123.942,7.806 134.396,9.845C141.207,11.009 146.875,11.343 151.189,10.836C157.49,10.091 159.973,7.087 160.585,6.185C161.311,5.113 161.463,3.131 161.459,2.522C161.452,1.394 162.201,0.396 163.287,0.093C164.375,-0.209 165.528,0.247 166.106,1.216C166.242,1.444 169.412,6.868 167.779,13.464C167.345,15.216 166.802,16.688 166.238,17.905C167.705,17.708 169.248,17.415 170.489,16.982C174.132,15.713 175.418,15.14 175.43,15.134C176.348,14.723 177.426,14.9 178.16,15.584C178.896,16.27 179.152,17.328 178.806,18.272C178.555,18.957 176.228,25.043 171.799,27.929C171.743,27.965 171.687,28.001 171.63,28.037C172.668,29.275 173.566,30.545 174.313,31.834C175.46,33.606 176.191,35.125 177.095,37.071C184.799,53.64 178.377,71.042 177.159,74.037L177.159,97.821L178.783,97.821C190.351,97.821 199.762,107.232 199.762,118.8L199.762,128.405C199.762,139.973 190.351,149.384 178.783,149.384L177.159,149.384L177.159,150.371C177.16,187.885 146.644,218.403 109.133,218.403ZM95.701,211.962C100.03,212.905 104.525,213.402 109.133,213.402C112.741,213.402 116.279,213.097 119.724,212.512C119.709,212.403 119.702,212.291 119.702,212.178L119.702,208.105C119.702,206.724 120.821,205.605 122.202,205.605C123.583,205.605 124.702,206.724 124.702,208.105L124.702,211.457C130.403,210.003 135.796,207.769 140.76,204.878C139.361,204.956 138.125,203.808 138.125,202.382L138.125,198.309C138.125,196.928 139.244,195.809 140.625,195.809C142.006,195.809 143.125,196.928 143.125,198.309L143.125,202.382C143.125,202.845 142.999,203.279 142.779,203.651C151.448,198.157 158.692,190.605 163.817,181.69C163.663,181.365 163.577,181.002 163.577,180.619L163.577,176.546C163.577,175.165 164.696,174.046 166.077,174.046C166.56,174.046 167.012,174.184 167.394,174.421C170.465,167.008 172.161,158.886 172.161,150.375L172.161,129.185L167.732,129.185C167.064,129.185 166.423,128.917 165.955,128.443C165.485,127.968 165.225,127.325 165.232,126.657C165.236,126.367 165.535,97.575 163.306,88.661C161.293,80.605 155.543,77.39 155.3,77.257C154.704,76.932 154.259,76.375 154.079,75.721C153.899,75.066 153.987,74.363 154.333,73.78C154.366,73.724 157.765,67.902 157.915,62.321C157.937,61.493 154.685,59.531 150.278,58.18C144.557,56.882 140.064,56.959 139.964,56.96L87.9,56.959C80.45,56.959 74.001,55.69 68.733,53.188C67.773,52.732 66.853,52.211 65.977,51.632C63.643,54.336 60.343,58.921 60.352,62.38C60.366,67.904 63.875,73.684 63.911,73.741C64.272,74.33 64.375,75.043 64.194,75.709C64.012,76.375 63.564,76.938 62.954,77.262C62.723,77.388 56.975,80.603 54.961,88.659C52.732,97.576 53.032,126.365 53.036,126.655C53.043,127.323 52.784,127.966 52.314,128.441C51.844,128.916 51.204,129.183 50.536,129.183L46.107,129.183L46.107,150.373C46.107,158.361 47.601,166.009 50.324,173.048C50.78,172.439 51.508,172.044 52.327,172.044C53.708,172.044 54.827,173.163 54.827,174.544L54.827,178.617C54.827,179.429 54.441,180.149 53.842,180.606C56.766,185.932 60.436,190.792 64.713,195.044C64.827,193.77 65.899,192.771 67.203,192.771C68.584,192.771 69.703,193.89 69.703,195.271L69.703,199.344C69.703,199.399 69.701,199.452 69.698,199.505C75.858,204.459 82.968,208.282 90.703,210.652L90.703,209.104C90.703,207.723 91.822,206.604 93.203,206.604C94.584,206.604 95.703,207.723 95.703,209.104L95.703,211.962L95.701,211.962ZM177.297,144.387L178.784,144.387C187.596,144.387 194.763,137.219 194.763,128.408L194.763,118.803C194.763,109.991 187.595,102.824 178.784,102.824L177.297,102.824L177.297,144.387ZM39.618,102.823C30.807,102.823 23.639,109.991 23.639,118.802L23.639,128.407C23.639,137.219 30.807,144.386 39.618,144.386L41.106,144.386L41.106,102.822L39.618,102.822L39.618,102.823ZM170.247,124.184L172.16,124.184L172.16,73.921C169.975,69.192 166.613,65.782 162.87,63.32C162.561,67.675 160.878,71.841 159.726,74.242C162.252,76.215 166.39,80.379 168.157,87.446C170.155,95.443 170.271,116.786 170.247,124.184ZM46.106,124.184L48.019,124.184C47.996,116.786 48.111,95.443 50.11,87.447C51.871,80.403 55.986,76.243 58.514,74.262C57.242,71.685 55.364,67.09 55.352,62.392C55.339,57.086 59.57,51.389 62.129,48.431C62.081,48.381 62.034,48.331 61.986,48.282C60.128,46.35 58.6,44.093 57.482,41.604C50.305,47.995 46.105,57.226 46.105,66.905L46.105,124.184L46.106,124.184ZM149.856,52.869C157.51,54.357 167.762,58.061 174.104,67.246C174.458,65.902 174.81,64.343 175.101,62.619C172.167,59.761 161.57,50.408 145.803,47.41C134.782,45.314 121.76,46.127 109.171,46.911C99.81,47.494 90.13,48.098 81.555,47.447C73.241,46.815 67.477,44.645 63.535,42.219C64.065,43.028 64.656,43.792 65.302,44.507C65.792,45.041 66.313,45.544 66.863,46.015C67.087,46.132 67.298,46.285 67.485,46.473C67.54,46.529 67.592,46.585 67.641,46.645C68.597,47.375 69.628,48.011 70.724,48.539C75.336,50.76 81.104,51.886 87.869,51.886L139.84,51.886C140.363,51.87 143.793,51.837 148.435,52.613C148.641,52.614 148.848,52.629 149.057,52.676C149.287,52.73 149.557,52.794 149.856,52.869ZM129.062,41.077C135.187,41.077 141.157,41.438 146.737,42.499C160.593,45.134 170.618,52.104 175.753,56.449C175.834,54.442 175.788,52.33 175.555,50.166C174.404,49.196 164.454,40.937 155.626,37.3C146.455,33.523 131.766,34.687 131.617,34.696C130.773,34.765 129.969,34.412 129.449,33.755C128.929,33.097 128.774,32.224 129.035,31.428L129.651,29.545L115.159,34.091C114.272,34.369 113.306,34.134 112.648,33.478C111.99,32.824 111.749,31.858 112.021,30.971L113.554,25.986C105.828,31.043 92.202,38.576 80.977,37.358C70.058,36.184 64.23,31.139 61.438,27.631C60.766,28.947 60.395,30.329 60.395,31.65C60.395,31.885 60.399,32.12 60.408,32.353C61.219,33.923 65.836,41.24 81.934,42.462C90.164,43.089 99.246,42.521 108.86,41.922C115.574,41.502 122.409,41.077 129.062,41.077ZM137.064,29.511C142.637,29.511 151.091,30.024 157.53,32.676C163.48,35.127 169.692,39.346 173.882,42.475C173.508,41.372 173.071,40.273 172.564,39.18L172.563,39.18C171.71,37.346 171.078,36.03 170.086,34.505C170.062,34.467 170.037,34.428 170.015,34.389C168.991,32.609 167.59,30.85 165.853,29.161C165.259,28.585 164.99,27.752 165.132,26.936C165.276,26.122 165.812,25.43 166.566,25.089C167.504,24.665 168.347,24.211 169.072,23.739C169.724,23.314 170.336,22.734 170.894,22.082C166.803,23.186 161.599,23.299 161.358,23.304L161.31,23.304C160.275,23.304 159.344,22.665 158.974,21.696C158.598,20.711 158.881,19.595 159.68,18.908C159.679,18.909 161.765,16.955 162.926,12.262C163.047,11.775 163.129,11.294 163.18,10.824C161.247,12.728 157.721,15.097 151.777,15.8C146.988,16.366 140.839,16.017 133.498,14.762C123.388,12.791 112.247,12.084 101.219,12.7C92.823,13.172 85.241,14.548 78.042,16.909C78.006,16.921 77.969,16.931 77.932,16.942C73.072,18.426 70.067,20.229 68.078,21.422C67.597,21.71 67.17,21.966 66.787,22.178L64.704,23.665C66.437,26.203 71.136,31.269 81.512,32.385C95.844,33.923 116.349,17.903 116.554,17.739C117.415,17.062 118.615,17.025 119.515,17.64C120.417,18.259 120.813,19.392 120.492,20.438L118.198,27.895L132.792,23.317C133.685,23.037 134.66,23.28 135.318,23.946C135.976,24.612 136.207,25.591 135.916,26.48L134.916,29.535C135.566,29.521 136.287,29.511 137.064,29.511ZM109.701,208.882C108.32,208.882 107.201,207.763 107.201,206.382L107.201,202.309C107.201,200.928 108.32,199.809 109.701,199.809C111.082,199.809 112.201,200.928 112.201,202.309L112.201,206.382C112.201,207.763 111.082,208.882 109.701,208.882ZM84.779,203.882C83.398,203.882 82.279,202.763 82.279,201.382L82.279,197.309C82.279,195.928 83.398,194.809 84.779,194.809C86.16,194.809 87.279,195.928 87.279,197.309L87.279,201.382C87.279,202.763 86.159,203.882 84.779,203.882ZM101.701,194.882C100.32,194.882 99.201,193.763 99.201,192.382L99.201,188.309C99.201,186.928 100.32,185.809 101.701,185.809C103.082,185.809 104.201,186.928 104.201,188.309L104.201,192.382C104.201,193.763 103.082,194.882 101.701,194.882ZM121.201,192.845C119.82,192.845 118.701,191.726 118.701,190.345L118.701,186.272C118.701,184.891 119.82,183.772 121.201,183.772C122.582,183.772 123.701,184.891 123.701,186.272L123.701,190.345C123.701,191.726 122.582,192.845 121.201,192.845ZM148.9,191.192C147.519,191.192 146.4,190.073 146.4,188.692L146.4,184.619C146.4,183.238 147.519,182.119 148.9,182.119C150.281,182.119 151.4,183.238 151.4,184.619L151.4,188.692C151.4,190.073 150.28,191.192 148.9,191.192ZM134.951,185.765C133.57,185.765 132.451,184.646 132.451,183.265L132.451,179.192C132.451,177.811 133.57,176.692 134.951,176.692C136.332,176.692 137.451,177.811 137.451,179.192L137.451,183.265C137.451,184.646 136.332,185.765 134.951,185.765ZM69.504,185.192C68.123,185.192 67.004,184.073 67.004,182.692L67.004,178.619C67.004,177.238 68.123,176.119 69.504,176.119C70.885,176.119 72.004,177.238 72.004,178.619L72.004,182.692C72.004,184.073 70.884,185.192 69.504,185.192ZM86.451,183.765C85.07,183.765 83.951,182.646 83.951,181.265L83.951,177.192C83.951,175.811 85.07,174.692 86.451,174.692C87.832,174.692 88.951,175.811 88.951,177.192L88.951,181.265C88.951,182.646 87.832,183.765 86.451,183.765ZM109.133,183.119C107.752,183.119 106.633,182 106.633,180.619L106.633,176.546C106.633,175.165 107.752,174.046 109.133,174.046C110.514,174.046 111.633,175.165 111.633,176.546L111.633,180.619C111.633,181.999 110.514,183.119 109.133,183.119ZM124.08,179.083C123.172,179.083 122.297,178.586 121.854,177.724C121.686,177.406 117.993,170.582 108.701,170.582C99.277,170.582 95.59,177.641 95.554,177.712C94.929,178.945 93.425,179.436 92.194,178.812C90.963,178.188 90.47,176.684 91.094,175.453C91.299,175.05 96.24,165.583 108.701,165.583C121.162,165.583 126.103,175.05 126.307,175.453C126.932,176.684 126.44,178.188 125.207,178.812C124.847,178.995 124.46,179.083 124.08,179.083ZM157.576,170.2C156.195,170.2 155.076,169.081 155.076,167.7L155.076,163.627C155.076,162.246 156.195,161.127 157.576,161.127C158.957,161.127 160.076,162.246 160.076,163.627L160.076,167.7C160.076,169.08 158.957,170.2 157.576,170.2ZM143.451,169.236C142.07,169.236 140.951,168.117 140.951,166.736L140.951,162.663C140.951,161.282 142.07,160.163 143.451,160.163C144.832,160.163 145.951,161.282 145.951,162.663L145.951,166.736C145.951,168.117 144.832,169.236 143.451,169.236ZM74.951,167.236C73.57,167.236 72.451,166.117 72.451,164.736L72.451,160.663C72.451,159.282 73.57,158.163 74.951,158.163C76.332,158.163 77.451,159.282 77.451,160.663L77.451,164.736C77.451,166.117 76.332,167.236 74.951,167.236ZM88.951,165.2C87.57,165.2 86.451,164.081 86.451,162.7L86.451,158.627C86.451,157.246 87.57,156.127 88.951,156.127C90.332,156.127 91.451,157.246 91.451,158.627L91.451,162.7C91.451,164.08 90.332,165.2 88.951,165.2ZM59.826,165.2C58.445,165.2 57.326,164.081 57.326,162.7L57.326,158.627C57.326,157.246 58.445,156.127 59.826,156.127C61.207,156.127 62.326,157.246 62.326,158.627L62.326,162.7C62.326,164.08 61.207,165.2 59.826,165.2ZM126.451,164.2C125.07,164.2 123.951,163.081 123.951,161.7L123.951,157.627C123.951,156.246 125.07,155.127 126.451,155.127C127.832,155.127 128.951,156.246 128.951,157.627L128.951,161.7C128.951,163.08 127.832,164.2 126.451,164.2ZM106.451,159.534C105.07,159.534 103.951,158.415 103.951,157.034L103.951,152.961C103.951,151.58 105.07,150.461 106.451,150.461C107.832,150.461 108.951,151.58 108.951,152.961L108.951,157.034C108.951,158.414 107.832,159.534 106.451,159.534ZM151.201,155.46C149.82,155.46 148.701,154.341 148.701,152.96L148.701,148.887C148.701,147.506 149.82,146.387 151.201,146.387C152.582,146.387 153.701,147.506 153.701,148.887L153.701,152.96C153.701,154.341 152.582,155.46 151.201,155.46ZM67.201,153.46C65.82,153.46 64.701,152.341 64.701,150.96L64.701,146.887C64.701,145.506 65.82,144.387 67.201,144.387C68.582,144.387 69.701,145.506 69.701,146.887L69.701,150.96C69.701,152.341 68.582,153.46 67.201,153.46ZM167.701,151.387C166.32,151.387 165.201,150.268 165.201,148.887L165.201,144.814C165.201,143.433 166.32,142.314 167.701,142.314C169.082,142.314 170.201,143.433 170.201,144.814L170.201,148.887C170.201,150.268 169.082,151.387 167.701,151.387ZM50.701,149.387C49.32,149.387 48.201,148.268 48.201,146.887L48.201,142.814C48.201,141.433 49.32,140.314 50.701,140.314C52.082,140.314 53.201,141.433 53.201,142.814L53.201,146.887C53.201,148.268 52.082,149.387 50.701,149.387ZM134.951,137.106C125.5,137.106 117.75,128.502 117.23,117.7C117.194,117.236 117.175,116.767 117.175,116.294C117.175,113.055 118.045,110.017 119.565,107.398C119.602,107.329 119.642,107.261 119.684,107.196C122.79,102.003 128.471,98.518 134.951,98.518C144.753,98.518 152.726,106.492 152.726,116.293C152.726,116.767 152.707,117.235 152.671,117.699C152.153,128.502 144.403,137.106 134.951,137.106ZM122.221,117.374C122.772,123.914 128.271,129.067 134.951,129.067C141.631,129.067 147.131,123.914 147.681,117.374C147.693,117.099 147.699,116.821 147.699,116.543C147.699,116.418 147.708,116.295 147.725,116.176C147.709,114.356 147.31,112.626 146.606,111.063L123.295,111.063C122.591,112.626 122.191,114.356 122.176,116.176C122.194,116.295 122.202,116.418 122.202,116.543C122.203,116.822 122.209,117.099 122.221,117.374ZM127.308,106.063L142.595,106.063C140.462,104.465 137.816,103.518 134.951,103.518C132.086,103.518 129.441,104.465 127.308,106.063ZM84.779,137.106C75.323,137.106 67.571,128.494 67.058,117.683C67.022,117.225 67.004,116.761 67.004,116.293C67.004,113.058 67.873,110.022 69.39,107.405C69.429,107.331 69.472,107.259 69.517,107.188C72.624,101.999 78.303,98.517 84.779,98.517C94.58,98.517 102.554,106.491 102.554,116.292C102.554,116.76 102.536,117.224 102.5,117.682C101.987,128.494 94.235,137.106 84.779,137.106ZM72.048,117.362C72.592,123.908 78.094,129.068 84.778,129.068C91.462,129.068 96.964,123.908 97.508,117.362C97.52,117.091 97.526,116.818 97.526,116.544C97.526,116.42 97.535,116.299 97.552,116.18C97.536,114.36 97.137,112.628 96.432,111.064L73.122,111.064C72.417,112.628 72.018,114.36 72.002,116.18C72.02,116.299 72.028,116.42 72.028,116.544C72.03,116.818 72.036,117.091 72.048,117.362ZM77.135,106.063L92.422,106.063C90.289,104.465 87.642,103.518 84.778,103.518C81.914,103.518 79.268,104.465 77.135,106.063ZM134.951,119.043C133.57,119.043 132.451,117.924 132.451,116.543L132.451,116.293C132.451,114.912 133.57,113.793 134.951,113.793C136.332,113.793 137.451,114.912 137.451,116.293L137.451,116.543C137.451,117.924 136.332,119.043 134.951,119.043ZM84.779,119.043C83.398,119.043 82.279,117.924 82.279,116.543L82.279,116.293C82.279,114.912 83.398,113.793 84.779,113.793C86.16,113.793 87.279,114.912 87.279,116.293L87.279,116.543C87.279,117.924 86.159,119.043 84.779,119.043ZM76.611,88.078C75.872,88.078 75.141,87.752 74.648,87.128C73.792,86.044 73.977,84.472 75.061,83.616L91.399,70.715C92.483,69.86 94.055,70.045 94.91,71.127C95.766,72.211 95.581,73.783 94.497,74.639L78.159,87.54C77.7,87.903 77.154,88.078 76.611,88.078ZM142.632,87.039C142.189,87.039 141.74,86.922 141.334,86.675L123.552,75.852C122.372,75.134 121.998,73.596 122.716,72.416C123.434,71.236 124.973,70.864 126.152,71.58L143.934,82.403C145.114,83.121 145.488,84.659 144.77,85.839C144.299,86.613 143.476,87.039 142.632,87.039Z" style="fill:rgb(211,84,0);fill-rule:nonzero;"/>
    </g>
</svg>
