<?xml version="1.0" encoding="UTF-8" standalone="no"?>
<!DOCTYPE svg PUBLIC "-//W3C//DTD SVG 1.1//EN" "http://www.w3.org/Graphics/SVG/1.1/DTD/svg11.dtd">
<svg width="100%" height="100%" viewBox="0 0 512 512" version="1.1" xmlns="http://www.w3.org/2000/svg" xmlns:xlink="http://www.w3.org/1999/xlink" xml:space="preserve" xmlns:serif="http://www.serif.com/" style="fill-rule:evenodd;clip-rule:evenodd;stroke-linejoin:round;stroke-miterlimit:2;">
    <g>
        <path d="M157.897,185.906C154.68,183.297 149.958,183.789 147.348,187.007C144.318,190.743 140.301,192.8 136.035,192.8C131.769,192.8 127.752,190.742 124.722,187.007C122.113,183.79 117.389,183.298 114.173,185.906C110.956,188.515 110.463,193.238 113.072,196.455C118.919,203.665 127.289,207.8 136.035,207.8C144.781,207.8 153.15,203.665 158.998,196.455C161.607,193.238 161.114,188.515 157.897,185.906Z" style="fill:rgb(211,84,0);fill-rule:nonzero;"/>
        <path d="M101.759,141.386C97.617,141.386 94.259,144.744 94.259,148.886L94.259,157.455C94.259,161.597 97.617,164.955 101.759,164.955C105.901,164.955 109.259,161.597 109.259,157.455L109.259,148.886C109.259,144.744 105.901,141.386 101.759,141.386Z" style="fill:rgb(211,84,0);fill-rule:nonzero;"/>
        <path d="M170.311,141.386C166.169,141.386 162.811,144.744 162.811,148.886L162.811,157.455C162.811,161.597 166.168,164.955 170.311,164.955C174.453,164.955 177.811,161.597 177.811,157.455L177.811,148.886C177.811,144.744 174.453,141.386 170.311,141.386Z" style="fill:rgb(211,84,0);fill-rule:nonzero;"/>
        <path d="M406.397,228.75C403.18,226.141 398.457,226.633 395.848,229.851C392.818,233.586 388.8,235.644 384.535,235.644C380.269,235.644 376.252,233.586 373.222,229.851C370.614,226.634 365.89,226.141 362.673,228.75C359.456,231.359 358.964,236.082 361.573,239.299C367.419,246.51 375.789,250.644 384.535,250.644C393.281,250.644 401.65,246.509 407.497,239.299C410.106,236.082 409.614,231.359 406.397,228.75Z" style="fill:rgb(211,84,0);fill-rule:nonzero;"/>
        <path d="M350.259,184.231C346.117,184.231 342.759,187.589 342.759,191.731L342.759,200.3C342.759,204.442 346.117,207.8 350.259,207.8C354.401,207.8 357.759,204.442 357.759,200.3L357.759,191.731C357.759,187.589 354.401,184.231 350.259,184.231Z" style="fill:rgb(211,84,0);fill-rule:nonzero;"/>
        <path d="M418.811,184.231C414.669,184.231 411.311,187.589 411.311,191.731L411.311,200.3C411.311,204.442 414.668,207.8 418.811,207.8C422.953,207.8 426.311,204.442 426.311,200.3L426.311,191.731C426.311,187.589 422.953,184.231 418.811,184.231Z" style="fill:rgb(211,84,0);fill-rule:nonzero;"/>
        <path d="M491.126,332.545L432.369,309.042C432.051,308.915 431.757,308.753 431.459,308.597C472.042,299.363 491.262,283.921 492.115,283.222C494.144,281.559 495.157,278.957 494.786,276.36C494.701,275.766 486.292,216.225 486.292,157.456C486.292,101.346 440.643,55.697 384.533,55.697C328.423,55.697 282.775,101.345 282.775,157.456C282.775,172.83 282.077,191.634 280.941,209.435L264.568,217.622L216.508,193.593C216.37,193.524 216.225,193.474 216.084,193.414C218.37,186.751 219.865,179.725 220.414,172.434C230.467,169.328 237.792,159.947 237.792,148.887C237.792,141.438 234.464,134.756 229.223,130.234L229.223,80.334C229.223,66.549 222.258,53.651 210.836,45.901C206.966,31.521 194.046,21.42 178.878,21.42L110.326,21.42C73.116,21.42 42.843,51.693 42.843,88.903L42.843,130.233C37.602,134.754 34.274,141.437 34.274,148.886C34.274,159.946 41.599,169.327 51.652,172.433C53.546,197.612 66.522,219.735 85.688,233.973L85.688,254.703L23.664,273.31C9.51,277.557 0,290.338 0,305.116L0,388.817C0,392.959 3.358,396.317 7.5,396.317L8.569,396.317L8.569,483.076C8.569,487.218 11.927,490.576 16.069,490.576C20.211,490.576 23.569,487.218 23.569,483.076L23.569,396.317L51.414,396.317L51.414,483.076C51.414,487.218 54.772,490.576 58.914,490.576C63.056,490.576 66.414,487.218 66.414,483.076L66.414,353.756C66.414,347.178 64.485,340.808 60.837,335.336L48.017,316.106C45.719,312.659 41.062,311.729 37.617,314.025C34.17,316.322 33.239,320.979 35.537,324.426L48.357,343.657C50.357,346.657 51.415,350.149 51.415,353.756L51.415,381.317L16.069,381.317L15,381.317L15,305.116C15,297.013 20.214,290.006 27.976,287.677L53.723,279.953C62.689,317.495 96.74,344.903 136.035,344.903C150.152,344.903 163.862,341.422 176.139,334.798C180.626,340.919 187.863,344.903 196.017,344.903L197.086,344.903L197.086,345.972C197.086,371.115 210.918,393.075 231.362,404.684L231.362,416.917C231.362,417.377 231.068,417.785 230.631,417.931L202.654,427.257C189.073,431.784 179.948,444.444 179.948,458.76L179.948,483.076C179.948,487.218 183.306,490.576 187.448,490.576C191.59,490.576 194.948,487.218 194.948,483.076L194.948,458.76C194.948,450.911 199.951,443.969 207.397,441.488L215.624,438.745C226.508,454.977 244.813,464.87 264.568,464.87C284.344,464.87 302.632,454.983 313.514,438.746L321.739,441.488C329.185,443.97 334.188,450.911 334.188,458.76L334.188,483.076C334.188,487.218 337.546,490.576 341.688,490.576C345.83,490.576 349.188,487.218 349.188,483.076L349.188,458.76C349.188,444.444 340.063,431.784 326.482,427.258L298.505,417.932C298.068,417.786 297.774,417.379 297.774,416.918L297.774,404.685C313.081,395.993 324.667,381.497 329.527,364.204C343.7,379.034 363.495,387.75 384.532,387.75C417.744,387.75 446.885,366.281 456.923,335.022L485.552,346.473C492.505,349.254 496.997,355.89 496.997,363.377L496.997,398.456L495.928,398.456L469.152,398.456L469.152,388.818C469.152,384.676 465.794,381.318 461.652,381.318C457.51,381.318 454.152,384.676 454.152,388.818L454.152,483.077C454.152,487.219 457.51,490.577 461.652,490.577C465.794,490.577 469.152,487.219 469.152,483.077L469.152,413.456L488.428,413.456L488.428,483.077C488.428,487.219 491.786,490.577 495.928,490.577C500.07,490.577 503.428,487.219 503.428,483.077L503.428,413.456L504.497,413.456C506.486,413.456 508.393,412.666 509.8,411.26C511.207,409.853 511.997,407.946 511.997,405.956L511.997,363.377C512,349.719 503.807,337.617 491.126,332.545ZM297.776,157.455C297.776,109.616 336.696,70.696 384.535,70.696C432.374,70.696 471.293,109.616 471.293,157.455C471.293,207.818 477.358,258.729 479.329,273.934C472.608,278.331 455.4,288.015 426.311,294.379L426.311,282.444C430.295,280.186 434.109,277.609 437.695,274.711C452.453,262.782 462.882,246.075 467.058,227.669C468.45,221.536 469.156,215.211 469.156,208.87C469.156,166.479 438.499,160.393 408.851,154.507C389.986,150.762 370.479,146.889 354.945,134.462C352.694,132.661 349.61,132.31 347.011,133.559C344.412,134.808 342.76,137.435 342.76,140.319C342.76,140.518 342.433,160.252 314.165,167.319C310.146,168.324 307.703,172.396 308.708,176.415C309.712,180.434 313.785,182.875 317.803,181.872C341.463,175.957 351.115,162.684 355.051,152.712C371.315,162.35 389.534,165.966 405.93,169.221C437.619,175.512 454.156,180.133 454.156,208.871C454.156,214.097 453.575,219.305 452.43,224.351C448.995,239.485 440.414,253.227 428.265,263.047C415.765,273.151 400.643,278.491 384.535,278.491C369.851,278.491 355.876,273.987 344.016,265.476C339.671,253.617 332.692,242.767 323.483,233.827L323.483,200.302C323.483,197.702 322.137,195.288 319.926,193.922C317.715,192.556 314.955,192.431 312.629,193.594L296.436,201.69C297.324,186.071 297.776,171.221 297.776,157.455ZM308.483,212.435L308.483,239.578L281.339,226.007L308.483,212.435ZM220.655,212.435L247.798,226.007L220.655,239.578L220.655,212.435ZM179.948,294.558L179.948,301.681C174.578,306.318 171.379,313.104 171.379,320.264C160.697,326.575 148.562,329.903 136.034,329.903C103.41,329.903 75.185,306.945 68.124,275.633L86.653,270.074C91.224,293.162 111.625,310.627 136.035,310.627C155.418,310.627 172.266,299.61 180.676,283.515C180.195,287.157 179.948,290.845 179.948,294.558ZM100.69,260.27L100.69,242.897C111.452,247.867 123.424,250.644 136.035,250.644C148.645,250.644 160.618,247.866 171.38,242.898L171.38,260.281C171.38,279.77 155.525,295.626 136.035,295.626C116.578,295.626 100.745,279.822 100.692,260.377C100.692,260.341 100.69,260.305 100.69,260.27ZM136.035,235.644C97.645,235.644 66.414,204.413 66.414,166.024C66.414,161.882 63.056,158.524 58.914,158.524C53.6,158.524 49.276,154.2 49.276,148.886C49.276,143.572 53.599,139.248 58.914,139.248L76.052,139.248C79.28,139.248 82.146,137.183 83.167,134.12L90.051,113.468C107.286,113.079 160.715,110.656 190.802,95.612C194.507,93.759 196.009,89.255 194.156,85.55C192.304,81.845 187.8,80.343 184.094,82.196C151.813,98.336 85.287,98.542 84.619,98.542C81.391,98.543 78.525,100.608 77.505,103.671L70.646,124.249L58.914,124.249C58.556,124.249 58.2,124.261 57.845,124.276L57.845,88.903C57.845,59.964 81.389,36.42 110.328,36.42L178.88,36.42C187.836,36.42 195.36,42.875 196.773,51.767C197.132,54.027 198.503,55.999 200.496,57.123C208.964,61.899 214.225,70.792 214.225,80.333L214.225,124.274C213.87,124.258 213.515,124.247 213.156,124.247L204.587,124.247C200.445,124.247 197.087,127.605 197.087,131.747C197.087,135.889 200.445,139.247 204.587,139.247L213.156,139.247C218.47,139.247 222.794,143.57 222.794,148.885C222.794,154.2 218.471,158.523 213.156,158.523C209.014,158.523 205.656,161.881 205.656,166.023C205.656,204.412 174.425,235.644 136.035,235.644ZM186.379,260.283L186.379,233.973C193.84,228.43 200.361,221.697 205.655,214.045L205.655,233.826C197.256,241.98 190.709,251.721 186.326,262.369C186.355,261.676 186.379,260.982 186.379,260.283ZM298.548,433.756C290.291,443.843 277.887,449.869 264.569,449.869C251.267,449.869 238.855,443.839 230.595,433.755L235.375,432.162C241.947,429.972 246.363,423.845 246.363,416.918L246.363,410.94C252.159,412.567 258.261,413.456 264.57,413.456C270.879,413.456 276.981,412.567 282.777,410.94L282.777,416.918C282.776,423.844 287.191,429.971 293.764,432.161L298.548,433.756ZM324.553,329.903C320.411,329.903 317.053,333.261 317.053,337.403L317.053,344.86C317.053,344.925 317.052,344.99 317.053,345.055L317.053,345.972C317.052,374.911 293.508,398.455 264.569,398.455C235.63,398.455 212.087,374.911 212.087,345.972L212.087,337.403C212.087,333.261 208.729,329.903 204.587,329.903L196.018,329.903C190.704,329.903 186.38,325.58 186.38,320.265C186.38,316.845 188.19,313.75 191.221,311.986C191.898,311.592 192.487,311.093 192.997,310.529C211.537,309.992 271.636,306.503 311.135,283.932C314.731,281.877 315.981,277.296 313.926,273.699C311.871,270.102 307.288,268.853 303.693,270.908C269.091,290.68 214.719,294.639 194.949,295.43L194.949,294.558C194.949,280.609 199.173,267.1 206.827,255.711C207.426,256.66 208.227,257.484 209.213,258.093C210.418,258.837 211.785,259.213 213.156,259.213C214.302,259.213 215.451,258.95 216.51,258.421L264.57,234.391L312.63,258.421C313.689,258.95 314.838,259.213 315.984,259.213C317.356,259.213 318.723,258.837 319.927,258.093C320.912,257.484 321.713,256.659 322.312,255.711C329.966,267.1 334.19,280.609 334.19,294.558L334.19,305.504C334.19,308.174 335.609,310.643 337.918,311.986C340.95,313.751 342.76,316.845 342.76,320.265C342.76,325.579 338.436,329.903 333.122,329.903L324.553,329.903ZM384.535,372.748C363.771,372.748 344.507,362.177 333.293,344.899C346.799,344.806 357.759,333.793 357.759,320.266C357.759,313.106 354.56,306.319 349.19,301.682L349.19,294.559C349.19,291.54 349.027,288.538 348.708,285.564C359.829,290.778 371.971,293.489 384.535,293.489C393.68,293.489 402.724,291.974 411.311,289.11L411.311,300.093C411.311,310.226 417.39,319.206 426.798,322.969L442.971,329.438C435.22,355.066 411.55,372.748 384.535,372.748Z" style="fill:rgb(211,84,0);fill-rule:nonzero;"/>
        <path d="M286.432,357.285C283.215,354.676 278.492,355.168 275.883,358.386C272.852,362.122 268.835,364.179 264.57,364.179C260.305,364.179 256.287,362.122 253.257,358.386C250.648,355.169 245.924,354.676 242.708,357.285C239.491,359.894 238.998,364.617 241.607,367.834C247.455,375.043 255.824,379.179 264.57,379.179C273.316,379.179 281.685,375.044 287.533,367.835C290.141,364.618 289.648,359.894 286.432,357.285Z" style="fill:rgb(211,84,0);fill-rule:nonzero;"/>
        <circle cx="239" cy="328.868" r="7.5" style="fill:rgb(211,84,0);"/>
        <circle cx="290" cy="328.868" r="7.5" style="fill:rgb(211,84,0);"/>
    </g>
</svg>
