<?xml version="1.0" encoding="UTF-8"?>
<!DOCTYPE svg PUBLIC "-//W3C//DTD SVG 1.1//EN" "http://www.w3.org/Graphics/SVG/1.1/DTD/svg11.dtd">
<!-- Creator: CorelDRAW X6 -->
<svg xmlns="http://www.w3.org/2000/svg" xml:space="preserve" width="6.59722in" height="7.16666in" version="1.1" style="shape-rendering:geometricPrecision; text-rendering:geometricPrecision; image-rendering:optimizeQuality; fill-rule:evenodd; clip-rule:evenodd"
viewBox="0 0 6597 7167"
 xmlns:xlink="http://www.w3.org/1999/xlink">
 <defs>
  <style type="text/css">
   <![CDATA[
    .fil0 {fill:#B29C3B;fill-rule:nonzero}
   ]]>
  </style>
 </defs>
 <g id="Layer_x0020_1">
  <metadata id="CorelCorpID_0Corel-Layer"/>
  <path class="fil0" d="M3481 3282c6,-4 8,-13 6,-21 -2,7 -4,14 -6,21z"/>
  <path class="fil0" d="M3481 3282c2,-7 4,-14 6,-21 3,7 0,16 -6,21zm-1070 784c-20,-99 -10,-205 27,-297 0,5 0,10 0,14 2,125 -2,250 -5,375 -7,-31 -16,-61 -22,-92zm3976 -1336c128,-89 213,-219 215,-264 0,-1 0,-2 0,-2 0,-4 -1,-8 -3,-10 -25,-28 -163,132 -334,102 -66,-12 -125,-46 -190,-122 -163,-190 -231,-460 -331,-702 -76,-185 -173,-358 -277,-525 -22,-35 -44,-71 -73,-99 -45,-44 -103,-68 -158,-90 -54,-22 -119,-51 -174,-72 31,8 63,16 97,22 142,25 268,17 368,0 -59,-10 -142,-32 -230,-83 -110,-65 -161,-138 -216,-198 -146,-159 -358,-275 -540,-288 -182,-13 -361,43 -530,126 25,-18 46,-42 67,-66 116,-132 227,-279 253,-465 -60,145 -176,250 -302,316 -126,65 -264,95 -399,124 -226,49 -452,97 -678,146 -174,37 -353,77 -500,192 -147,114 -272,320 -231,520 5,3 7,10 5,16 -90,94 -175,136 -234,158 -195,72 -395,20 -430,108 -6,15 -5,29 -4,37 27,28 63,58 107,85 118,72 234,82 298,83 -106,168 -170,383 -129,586 35,172 141,323 148,499 11,-24 23,-57 29,-99 7,-42 5,-78 2,-104 20,48 41,113 49,193 15,137 -14,249 -36,312 117,-107 153,-204 162,-276 10,-76 -4,-167 1,-167 3,0 5,28 18,73 3,11 7,23 41,102 13,31 18,43 32,75 13,29 26,58 38,88 62,156 94,326 108,498 -10,-1 -22,4 -28,13 -34,58 -68,115 -102,173 -23,40 -47,81 -56,128 -12,62 4,127 -3,190 -9,87 -58,161 -105,229 -126,183 -253,371 -379,554 -226,-231 -277,-615 -440,-909 -34,-61 -74,-120 -127,-160 -41,-32 -90,-51 -139,-49 2,-22 6,-43 10,-64 15,-82 60,-145 111,-209 13,-13 32,-19 45,-19 51,0 102,13 154,13 45,0 96,0 128,-38 32,-38 19,-90 38,-134 11,-26 39,-34 38,-58 -1,-20 -18,-29 -13,-44 6,-17 31,-20 33,-38 0,-3 0,-6 -1,-7 -17,-22 -21,-40 -18,-54 6,-38 57,-46 64,-84 4,-19 -5,-39 -17,-56 -23,-19 -38,-37 -48,-49 -11,-14 -86,-112 -63,-210 2,-10 4,-11 8,-24 14,-44 25,-111 12,-207 5,-20 41,-172 -42,-313 -57,-97 -156,-158 -257,-158 0,-10 0,-20 0,-30 -88,-113 -239,-121 -369,-130 -128,-9 -259,-9 -379,45 -158,71 -279,231 -350,411 -20,51 -37,105 -47,160 -3,13 -4,26 -6,39 -2,17 -3,35 -4,52 -2,89 19,176 43,261 21,114 28,244 -36,333 7,2 38,8 69,-9 25,-14 37,-36 40,-45 24,104 46,268 -6,448 -55,189 -134,198 -174,397 -10,53 -15,103 -15,149 0,140 39,251 68,333 0,0 27,76 41,72 20,-5 -45,-185 35,-333 27,-49 68,-92 73,-89 5,3 -21,44 -36,92 -16,48 -27,121 -1,224 13,-24 29,-51 48,-78 20,-28 40,-52 59,-72 2,17 3,37 2,58 -1,29 -4,54 -8,76 1,-4 3,-6 6,-7 -20,133 -35,284 -40,450 -3,104 -2,202 2,293 13,90 44,214 126,313 115,138 217,96 496,235 228,114 364,245 403,284 88,87 151,172 193,235 -28,-114 -54,-258 -64,-424 -12,-193 0,-359 17,-488 33,24 69,44 104,63 109,58 230,189 353,107 66,-44 109,-122 146,-199 105,-221 181,-460 303,-669 38,-66 83,-133 104,-207 -1,70 -1,139 2,209 2,55 12,134 14,188 2,35 21,66 44,88 23,22 50,38 76,55 50,35 94,79 143,114 49,35 106,62 164,56 73,-8 126,-55 155,-81 35,-33 57,-67 70,-90 44,-17 99,-47 120,-102 29,-76 -25,-133 -52,-256 -24,-110 3,-227 44,-329 41,-103 97,-197 134,-302 62,-175 86,-403 137,-586 90,-43 162,-130 208,-231 47,-101 84,-219 95,-333 83,8 139,104 166,195 107,353 43,729 -10,940 -256,1032 117,2139 165,2136 13,-1 7,-89 34,-255 72,-444 270,-752 361,-891 151,-230 318,-395 464,-511 173,-101 346,-201 519,-302 82,-78 190,-197 290,-367 97,-165 152,-320 185,-436 29,-119 39,-222 42,-298 31,40 82,48 128,55 62,8 125,17 188,8 -94,-18 -182,-71 -248,-151 75,-7 198,-29 317,-112z"/>
  <path class="fil0" d="M1300 6937c-32,24 -74,36 -128,36 -76,0 -136,-33 -181,-98 -42,-62 -63,-141 -63,-237 0,-95 21,-173 63,-236 45,-66 105,-99 181,-99 52,0 94,12 127,36l-21 51c-28,-17 -58,-26 -91,-26 -58,0 -102,28 -131,85 -25,48 -38,111 -38,188 0,77 13,139 39,187 30,55 73,82 129,82 33,0 63,-9 91,-26l23 55z"/>
  <path class="fil0" d="M1656 6907l0 -234c-71,9 -121,22 -150,41 -37,23 -55,58 -55,106 0,69 40,104 121,104 35,0 63,-6 84,-17zm79 29c-43,24 -99,36 -169,36 -129,0 -194,-50 -194,-150 0,-62 28,-109 83,-140 44,-25 111,-42 202,-51l0 -31c0,-67 -38,-101 -113,-101 -39,0 -80,11 -123,32l-20 -49c46,-25 98,-38 156,-38 119,0 178,55 178,166l0 327z"/>
  <path class="fil0" d="M2088 6445l-20 63c-16,-5 -33,-8 -50,-8 -27,0 -49,6 -66,17l0 446 -84 0 0 -482c52,-26 125,-38 219,-36z"/>
  <polygon class="fil0" points="2480,6963 2179,6963 2179,6312 2480,6312 2480,6370 2266,6370 2266,6598 2459,6598 2459,6656 2266,6656 2266,6906 2480,6906 "/>
  <path class="fil0" d="M2865 6899l0 -390c-17,-9 -41,-14 -73,-14 -98,0 -148,73 -148,220 0,137 46,205 139,205 30,0 57,-7 81,-21zm81 268l-81 0 0 -219c-27,16 -61,24 -103,24 -61,0 -110,-23 -146,-68 -36,-45 -54,-107 -54,-184 0,-83 19,-148 57,-197 40,-52 99,-78 175,-78 64,0 115,12 152,36l0 687z"/>
  <path class="fil0" d="M3441 6933c-47,27 -107,41 -180,41 -120,0 -181,-55 -181,-167l0 -354 84 0 0 357c0,32 8,57 24,75 18,20 44,30 77,30 37,0 68,-7 91,-21l0 -442 84 0 0 480z"/>
  <path class="fil0" d="M3665 6963l-84 0 0 -510 84 0 0 510zm6 -654c0,13 -5,23 -14,32 -9,9 -21,13 -34,13 -14,0 -26,-4 -35,-13 -9,-9 -14,-20 -14,-32 0,-13 5,-23 14,-33 9,-9 21,-14 35,-14 13,0 25,5 34,14 9,9 14,20 14,33z"/>
  <path class="fil0" d="M4173 6963l-84 0 0 -366c0,-66 -35,-99 -106,-99 -36,0 -68,6 -96,18l0 447 -84 0 0 -483c50,-24 112,-36 186,-36 65,0 113,16 145,48 26,27 39,61 39,103l0 368z"/>
  <path class="fil0" d="M4607 6659c0,-107 -39,-161 -117,-161 -39,0 -69,16 -91,47 -24,34 -36,84 -35,150l243 -37zm79 35l-321 46c9,115 61,172 155,172 50,0 92,-10 126,-29l22 55c-38,23 -90,35 -154,35 -69,0 -124,-22 -164,-65 -42,-46 -63,-113 -63,-201 0,-84 19,-150 58,-197 37,-44 86,-66 148,-66 131,0 196,83 194,250z"/>
 </g>
</svg>
