<?xml version="1.0" encoding="UTF-8" standalone="no"?>
<!DOCTYPE svg PUBLIC "-//W3C//DTD SVG 1.1//EN" "http://www.w3.org/Graphics/SVG/1.1/DTD/svg11.dtd">
<svg width="100%" height="100%" viewBox="0 0 496 496" version="1.1" xmlns="http://www.w3.org/2000/svg" xmlns:xlink="http://www.w3.org/1999/xlink" xml:space="preserve" xmlns:serif="http://www.serif.com/" style="fill-rule:evenodd;clip-rule:evenodd;stroke-linejoin:round;stroke-miterlimit:2;">
    <path d="M496,208L478.023,208L451.23,222.098C448.215,220.434 445.078,219.023 441.695,218.176L407.992,209.742L407.992,205.91C422.902,195.504 432,178.313 432,160L432,146.016C432,114.938 407.648,88.93 377.719,88.023C376.199,87.984 374.703,88.039 373.199,88.113L381.938,67.656L339.574,25.305L314.602,41.559C305.113,36.215 295.078,32.055 284.656,29.137L278.488,0L217.52,0L211.352,29.145C200.93,32.063 190.887,36.223 181.406,41.566L156.434,25.313L114.105,67.641L122.695,88.113C122.367,88.098 122.055,88.039 121.727,88.031C106.406,87.586 91.977,93.176 81.016,103.816C70.039,114.449 64,128.719 64,144L64,160C64,178.313 73.09,195.496 88,205.902L88,209.742L66.016,215.238L26.168,192L0,192L0,357.77L78.703,384L94.031,384L95.945,377.297L120.07,391.777C120.465,404.895 130.984,415.449 144.09,415.91C144.551,428.961 155.039,439.449 168.09,439.91C168.551,452.961 179.039,463.449 192.09,463.91C192.566,477.266 203.504,488 216.969,488C221.969,488 226.871,486.441 230.992,483.664L238.078,489.922C242.52,493.832 248.238,496 254.176,496L255.656,496C268.969,496 279.801,485.238 279.969,471.969C293.137,471.801 303.801,461.137 303.969,447.969C317.145,447.801 327.816,437.121 327.969,423.945C341.266,423.633 352,412.77 352,399.398C352,398.594 351.961,397.801 351.879,397L496,324.945L496,208ZM416,146.016L416,160C416,174.199 408.328,187.465 395.977,194.617L391.977,196.93L392.008,222.246L431.977,232.23L344,278.535L344,256.984C344,246.23 339.656,236.383 332.543,229.105L360,222.246L360,196.91L356.008,194.602C343.664,187.465 336,174.199 336,160L336,144C336,133.09 340.313,122.887 348.152,115.289C355.984,107.695 366.375,103.602 377.238,104.023C398.609,104.664 416,123.504 416,146.016ZM260.063,272.246L223.848,260.672C207.344,255.383 189.48,254.594 172.586,258.336L168,259.352L168,256.984C168,245.953 175.48,236.375 186.176,233.695L232,222.246L232,196.91L228.008,194.602C215.664,187.465 208,174.199 208,160L208,144C208,133.09 212.313,122.887 220.152,115.289C227.984,107.695 238.441,103.602 249.238,104.023C270.609,104.664 288,123.504 288,146.016L288,160C288,174.199 280.328,187.465 267.977,194.617L263.977,196.93L264.008,222.246L309.824,233.695C320.52,236.375 328,245.953 328,256.984L328,286.961L326.023,288L321.121,288L271.938,273.945C268.063,272.848 264.07,272.398 260.063,272.246ZM169.793,119.734C184.816,90.625 215.055,72 248,72C280.633,72 310.742,90.375 325.879,119.09C322.07,126.727 320,135.184 320,144L320,160C320,178.312 329.09,195.496 344,205.902L344,209.742L312,217.754L279.992,209.742L279.992,205.91C294.902,195.504 304,178.312 304,160L304,146.016C304,114.937 279.648,88.93 249.719,88.023C234.406,87.574 219.969,93.168 209.008,103.809C198.039,114.449 192,128.719 192,144L192,160C192,178.312 201.09,195.496 216,205.902L216,209.742L184,217.754L151.992,209.742L151.992,205.91C166.902,195.504 176,178.312 176,160L176,146.016C176,136.602 173.734,127.664 169.793,119.734ZM133,71.352L158.559,45.793L181.055,60.434L185.359,57.793C196.145,51.184 207.801,46.344 220,43.426L224.922,42.246L230.488,16L265.52,16L271.07,42.238L275.992,43.414C288.191,46.336 299.848,51.176 310.633,57.785L314.938,60.426L337.434,45.785L362.961,71.32L353.887,92.566C347.711,95.223 341.984,98.961 337,103.793C336.672,104.113 336.391,104.457 336.07,104.785C317.223,74.824 283.902,56 248,56C211.84,56 178.426,75 159.625,105.266C154.594,100 148.609,95.734 141.977,92.754L133,71.352ZM104,222.246L104,196.91L100.008,194.602C87.664,187.465 80,174.199 80,160L80,144C80,133.09 84.313,122.887 92.152,115.289C99.984,107.695 110.398,103.602 121.238,104.023C142.609,104.664 160,123.504 160,146.016L160,160C160,174.199 152.328,187.465 139.977,194.617L135.977,196.93L136.008,222.246L163.457,229.105C156.344,236.383 152,246.23 152,256.984L152,262.91L127.047,268.457L127.695,266.191L128,251.406L85.809,226.793L104,222.246ZM16,208L21.832,208L79.367,241.559L50.336,357.68L16,346.23L16,208ZM81.297,368L65.551,362.754L93.754,249.953L112,260.594L112,262.879L81.969,368L81.297,368ZM136,391.031C136,388.672 136.953,386.359 138.625,384.688L152.688,370.625C154.359,368.953 156.672,368 159.031,368C163.977,368 168,372.023 168,376.969C168,379.328 167.047,381.641 165.375,383.313L151.313,397.375C149.641,399.047 147.328,400 144.969,400C140.023,400 136,395.977 136,391.031ZM160,415.031C160,412.672 160.953,410.359 162.625,408.688L176.688,394.625C178.359,392.953 180.672,392 183.031,392C187.977,392 192,396.023 192,400.969C192,403.328 191.047,405.641 189.375,407.313L175.313,421.375C173.641,423.047 171.328,424 168.969,424C164.023,424 160,419.977 160,415.031ZM184,439.031C184,436.672 184.953,434.359 186.625,432.688L200.688,418.625C202.359,416.953 204.672,416 207.031,416C211.977,416 216,420.023 216,424.969C216,427.328 215.047,429.641 213.375,431.313L199.313,445.375C197.641,447.047 195.328,448 192.969,448C188.023,448 184,443.977 184,439.031ZM216.969,472C212.023,472 208,467.977 208,463.031C208,460.672 208.953,458.359 210.625,456.688L224.688,442.625C226.359,440.953 228.672,440 231.031,440C235.977,440 240,444.023 240,448.969C240,451.328 239.047,453.641 237.375,455.313L223.313,469.375C221.641,471.047 219.328,472 216.969,472ZM255.656,480L254.176,480C252.137,480 250.184,479.258 248.664,477.91L242.68,472.633L248.688,466.625C250.832,464.48 252.496,461.93 253.727,459.191L261,465.246C262.902,466.832 264,469.168 264,471.656C264,476.258 260.258,480 255.656,480ZM327.398,408L326.016,408C324.008,408 322.047,407.289 320.512,406L277.129,369.848L266.879,382.145L309.008,417.246C310.902,418.832 312,421.168 312,423.656C312,428.258 308.258,432 303.656,432L301.91,432C299.969,432 298.07,431.313 296.574,430.063L253.121,393.855L242.871,406.152L285,441.258C286.902,442.832 288,445.168 288,447.656C288,452.258 284.258,456 279.656,456C276.586,456 273.594,454.91 271.238,452.953L253.383,438.07C249.449,430.031 241.367,424.426 231.902,424.09C231.441,411.039 220.953,400.551 207.902,400.09C207.441,387.039 196.953,376.551 183.902,376.09C183.434,362.734 172.496,352 159.031,352C152.457,352 146.023,354.664 141.375,359.313L127.313,373.375C126.473,374.215 125.777,375.168 125.07,376.113L100.496,361.367L122.039,285.969L176.047,273.961C190.215,270.793 205.152,271.48 218.969,275.902L230.754,279.672L190.801,299.648C181.672,304.223 176,313.406 176,323.617L176,325.199C176,339.977 188.023,352 202.801,352C207.656,352 212.434,350.68 216.586,348.176L246.375,330.312C252.359,326.727 260.391,327.512 265.559,332.16L333.152,392.992C334.961,394.633 336,396.961 336,399.398C336,404.145 332.145,408 327.398,408ZM480,315.055L345.223,382.449C344.785,381.984 344.328,381.543 343.848,381.113L276.266,320.281C270.344,314.938 262.688,312 254.711,312C248.879,312 243.152,313.586 238.137,316.594L208.336,334.465C206.664,335.473 204.754,336 202.801,336C196.84,336 192,331.16 192,325.199L192,323.617C192,319.496 194.289,315.801 197.969,313.961L242.594,291.648C250.23,287.824 259.297,286.969 267.527,289.336L317.801,303.695L329.977,304L480,225.039L480,315.055Z" style="fill:rgb(211,84,0);fill-rule:nonzero;"/>
</svg>
